<?xml version="1.0" encoding="UTF-8"?>
<!DOCTYPE svg PUBLIC "-//W3C//DTD SVG 1.1//EN" "http://www.w3.org/Graphics/SVG/1.1/DTD/svg11.dtd">
<!-- Creator: CorelDRAW 2020 (64-Bit) -->
<svg xmlns="http://www.w3.org/2000/svg" xml:space="preserve" width="135.187mm" height="124.619mm" version="1.1" style="shape-rendering:geometricPrecision; text-rendering:geometricPrecision; image-rendering:optimizeQuality; fill-rule:evenodd; clip-rule:evenodd"
viewBox="0 0 1024.89 944.77"
 xmlns:xlink="http://www.w3.org/1999/xlink"
 xmlns:xodm="http://www.corel.com/coreldraw/odm/2003">
 <defs>
  <style type="text/css">
   <![CDATA[
    .fil1 {fill:#FEFEFE}
    .fil0 {fill:#7B335C}
    .fil6 {fill:#749C25}
    .fil3 {fill:#95C13C}
    .fil7 {fill:#C9491A}
    .fil5 {fill:#D1B410}
    .fil4 {fill:#E35C2B}
    .fil2 {fill:#F7DA35}
   ]]>
  </style>
 </defs>
 <g id="Layer_x0020_1">
  <metadata id="CorelCorpID_0Corel-Layer"/>
  <g id="_2557453558672">
   <g>
    <path class="fil0" d="M104.34 448.72c-41.06,63.56 -61.5,104.09 -69.55,182.11 -3.16,30.64 0.92,65.32 5.15,95.2 1.4,9.85 5.45,15.99 7.67,25.79 -15.27,4.2 -33.91,39.87 -15.21,57.69 13.99,13.33 29.99,11.89 45.83,3.26 1.82,17.17 39.74,49.73 56.35,61.79l14.86 11.08c6.5,3.02 1.22,-0.62 5.78,3.39 162.94,101.2 297.14,50.98 421.71,-42.2 114.62,-85.73 194.84,-242.44 145.03,-387.77l-10.62 -26.15c-0.12,-0.22 -0.42,-0.76 -0.54,-0.98l-4.82 -10.92c-10.02,-30.63 -61.93,-79.77 -83.51,-97.13 -171.61,-104.95 -404.38,-48.17 -518.12,124.84z"/>
    <path class="fil0" d="M680.53 360.89c7.63,-0.65 16.03,-4.38 22.24,-8.64 94.35,-64.77 134.22,-170.48 75.02,-286.95l-17.63 -28.08c-93.49,46.18 -139.27,140.65 -115.98,245.5 8.21,36.96 32.54,63.48 36.35,78.18z"/>
    <path class="fil0" d="M715.23 409.23c45,42.33 71.83,58.82 142.34,58.8 67.89,-0.02 124.71,-36.6 165.95,-113.44 -1.97,-2.13 -4.02,-4.28 -6.15,-6.28 -1.9,-1.78 -0.37,-0.44 -3.28,-2.92 -64.16,-54.68 -164.4,-73.89 -235.13,-13.46l-23.13 20.33c-27.31,27.01 -32.88,54.12 -40.6,56.99z"/>
    <path class="fil0" d="M219.53 616.18c0,-15.44 6.01,-29 12.15,-37.93 13.27,-19.29 40.99,-24.49 64.94,0.6 6.9,7.24 17.64,22.14 27.03,24.72 6.37,-4.39 6.89,-6.55 11.44,-13.45 4,-6.07 7.33,-10.04 11.34,-15.65 3.79,-5.31 6.29,-9.49 10.18,-14.74 4.3,-5.81 8.1,-9.09 9.92,-17.11l-33.58 -34.79c-19.7,-17.17 -37.27,-28.66 -68.68,-30.33 -23.12,-1.23 -45.92,8.79 -62.54,21.57 -52.91,40.7 -63.94,127.83 -35.29,186.47 42.25,86.48 132.57,99.61 185.22,26.72l57.75 -81.37c9.92,-13.57 18.26,-25.97 29.07,-39.43 10.83,-13.49 36.69,-70.16 80.4,-39.63 34.03,23.77 25.91,105.51 -22.86,102.94 -32.68,-1.73 -37.59,-28.44 -60.07,-40.69 -5.56,10.81 -41.25,54.7 -42.87,60.95 9.67,14.87 45.69,48.22 66.74,57.4 27.15,11.85 58.26,9.41 84.94,-4.24 6.16,-3.15 12.36,-9.32 17.52,-13.49 134.04,-108.44 -41.55,-366.57 -155.49,-208.41 -18.9,26.24 -106.43,152.3 -116.61,159.5 -15.31,10.83 -33.18,10.85 -49.12,-0.29 -12.33,-8.62 -21.52,-28.98 -21.52,-49.31z"/>
   </g>
   <path class="fil1" d="M695.48 377.26l1.4 -0.52c1.05,-1.38 2.33,-3.82 3,-5.03 2.41,-4.39 4.7,-8.82 7.17,-13.18 7.71,-13.55 16.57,-25.67 27.69,-36.67l0.24 -0.24 23.45 -20.61 0.06 -0.05c73.87,-63.12 180.29,-46.21 250.31,13.45 1.31,1.12 2.47,2.14 3.72,3.31 2.34,2.2 4.56,4.52 6.73,6.87l5.64 6.12 -3.93 7.33c-37.46,69.8 -94.28,119.58 -176.25,119.6 -62.11,0.02 -92.83,-11.68 -133.64,-46.86l8.98 22.1 0.1 0.31c51.06,148.97 -28.96,311.06 -149.09,400.92 -57.14,42.74 -121.25,80.42 -192.02,94.43 -38.93,7.71 -77.95,7.81 -116.89,0.11 -45,-8.91 -87.13,-27.64 -125.96,-51.76l-0.82 -0.51 -0.73 -0.64c-0.19,-0.17 -0.39,-0.34 -0.58,-0.52 -0.8,-0.32 -1.6,-0.68 -2.41,-1.05l-1.09 -0.51 -15.76 -11.75c-14.65,-10.65 -43.76,-34.84 -55.78,-55.7 -16.65,5.5 -33.28,3.28 -47.54,-10.31 -4.58,-4.37 -7.87,-9.72 -9.72,-15.77 -2.89,-9.46 -1.99,-19.68 1.09,-28.98 3.11,-9.39 9.46,-20.23 17.99,-26.99 -0.46,-1.26 -0.93,-2.52 -1.39,-3.79 -1.78,-4.89 -3.2,-9.59 -3.93,-14.77 -4.5,-31.77 -8.51,-66.01 -5.2,-98.03 8.12,-78.7 28.72,-122.09 71.4,-187.31 73.38,-112.13 199.39,-181.32 333.39,-182.9 70.72,-0.83 140.19,17.55 200.61,54.49l0.64 0.39 0.59 0.47c6.83,5.5 15.2,12.8 24.05,21.15 -9.3,-16.06 -17.02,-32.45 -21.08,-50.68 -24.07,-108.3 22.44,-209.23 122.21,-258.51l9.46 -4.67 23.53 37.47 0.24 0.47c58.63,115.36 26.53,229.55 -78.83,301.88 -6.25,4.29 -13.89,7.89 -21.56,9.64 7.94,9.37 15.08,18.85 20.53,27.79z"/>
   <g>
    <path class="fil2" d="M91.47 426.65c-41.06,63.56 -61.5,104.09 -69.55,182.11 -3.16,30.64 0.92,65.32 5.15,95.2 1.39,9.85 5.45,15.99 7.67,25.79 -15.27,4.2 -33.91,39.87 -15.21,57.69 13.99,13.33 29.99,11.89 45.83,3.26 1.82,17.17 39.74,49.73 56.35,61.79l14.85 11.08c6.5,3.02 1.22,-0.62 5.78,3.39 162.94,101.2 297.14,50.98 421.71,-42.2 114.62,-85.73 194.84,-242.44 145.03,-387.77l-10.62 -26.15c-0.12,-0.22 -0.42,-0.76 -0.54,-0.98l-4.82 -10.92c-10.02,-30.63 -61.93,-79.77 -83.51,-97.13 -171.61,-104.95 -404.38,-48.17 -518.12,124.84z"/>
    <path class="fil3" d="M667.66 338.82c7.63,-0.65 16.03,-4.38 22.24,-8.64 94.35,-64.77 134.22,-170.48 75.02,-286.95l-17.63 -28.08c-93.49,46.18 -139.27,140.65 -115.98,245.5 8.21,36.96 32.54,63.48 36.35,78.18z"/>
    <path class="fil3" d="M702.36 387.17c45,42.33 71.83,58.82 142.34,58.8 67.89,-0.02 124.71,-36.6 165.95,-113.44 -1.97,-2.13 -4.02,-4.28 -6.15,-6.28 -1.9,-1.78 -0.37,-0.44 -3.28,-2.92 -64.16,-54.68 -164.4,-73.89 -235.13,-13.46l-23.13 20.33c-27.31,27.01 -32.88,54.12 -40.6,56.99z"/>
    <path class="fil4" d="M206.66 594.12c0,-15.44 6.01,-29 12.15,-37.93 13.27,-19.29 40.99,-24.49 64.94,0.6 6.9,7.24 17.64,22.14 27.03,24.72 6.37,-4.39 6.89,-6.55 11.44,-13.45 4,-6.07 7.34,-10.04 11.34,-15.65 3.79,-5.31 6.29,-9.49 10.18,-14.74 4.3,-5.81 8.1,-9.09 9.92,-17.11l-33.58 -34.79c-19.7,-17.17 -37.27,-28.66 -68.68,-30.33 -23.12,-1.23 -45.92,8.79 -62.54,21.57 -52.91,40.7 -63.94,127.83 -35.29,186.47 42.25,86.48 132.57,99.61 185.22,26.72l57.75 -81.37c9.92,-13.57 18.26,-25.97 29.07,-39.43 10.83,-13.49 36.69,-70.17 80.4,-39.63 34.03,23.77 25.91,105.51 -22.86,102.94 -32.68,-1.73 -37.59,-28.44 -60.07,-40.69 -5.56,10.81 -41.25,54.7 -42.88,60.95 9.67,14.87 45.69,48.21 66.74,57.4 27.15,11.85 58.26,9.41 84.94,-4.24 6.16,-3.15 12.36,-9.32 17.52,-13.49 134.04,-108.44 -41.55,-366.57 -155.49,-208.41 -18.9,26.24 -106.43,152.3 -116.61,159.5 -15.31,10.83 -33.18,10.85 -49.12,-0.29 -12.33,-8.62 -21.52,-28.98 -21.52,-49.31z"/>
   </g>
   <path class="fil5" d="M12.89 779.79c1.26,2.77 3.04,5.36 5.44,7.65 12.34,11.76 26.26,12.02 40.25,5.99 -4.61,-6.16 -7.72,-11.9 -8.21,-16.52 -12.77,6.96 -25.64,9.24 -37.48,2.88zm67.53 37.06c12.87,14.1 30.24,28.48 40.1,35.64l14.86 11.08c6.5,3.02 1.21,-0.62 5.78,3.39 162.94,101.2 297.14,50.98 421.71,-42.2 114.62,-85.73 194.84,-242.44 145.03,-387.77l-10.62 -26.15c-0.12,-0.22 -0.42,-0.76 -0.54,-0.98l-4.82 -10.92c-6.93,-21.19 -33.91,-51.24 -57.03,-73.49 19.09,19.85 37.66,42.65 43.24,59.7l4.82 10.92c0.12,0.22 0.42,0.76 0.54,0.98l10.62 26.15c49.81,145.33 -30.41,302.03 -145.03,387.77 -124.57,93.18 -258.76,143.4 -421.71,42.2 -4.56,-4.01 0.73,-0.36 -5.78,-3.39l-14.85 -11.08c-6.6,-4.8 -16.58,-12.83 -26.31,-21.85z"/>
   <path class="fil6" d="M666.45 338.82c7.63,-0.65 16.03,-4.38 22.24,-8.64 94.35,-64.77 134.22,-170.48 75.02,-286.95l-17.63 -28.09c-1.31,0.65 -2.6,1.31 -3.89,1.97l7.74 12.32c59.19,116.47 19.33,222.18 -75.02,286.95 -4.44,3.05 -10.02,5.83 -15.63,7.4 3.46,5.91 6.12,10.93 7.18,15.03z"/>
   <path class="fil6" d="M701.16 387.17c45,42.33 71.83,58.82 142.34,58.8 67.89,-0.02 124.7,-36.6 165.95,-113.44 -1.97,-2.13 -4.02,-4.28 -6.15,-6.28 -1.9,-1.78 -0.37,-0.44 -3.28,-2.92 -1.55,-1.32 -3.13,-2.62 -4.73,-3.9 -41.21,76.38 -97.89,112.74 -165.58,112.76 -62.55,0.02 -90.72,-12.96 -127.7,-45.43 -0.28,0.17 -0.57,0.32 -0.85,0.42z"/>
   <path class="fil7" d="M206.47 594.23c0,-15.44 6.01,-29 12.15,-37.93 11.45,-16.64 33.65,-22.79 54.9,-8.06 -23.86,-24.64 -51.35,-19.4 -64.56,-0.21 -6.15,8.93 -12.15,22.49 -12.15,37.93 0,20.33 9.19,40.69 21.52,49.31 0.87,0.61 1.75,1.18 2.63,1.72 -8.63,-10.28 -14.49,-26.53 -14.49,-42.76zm89.93 -22.96c4.23,4.41 8.71,8.32 12.96,9.94 14.27,-19.76 29.97,-41.91 43.55,-61.13l-33.01 -34.21c-2.9,-2.53 -5.76,-4.93 -8.62,-7.2l32.54 33.72c-1.82,8.02 -5.61,11.31 -9.92,17.11 -3.89,5.25 -6.39,9.43 -10.18,14.74 -4.01,5.61 -7.34,9.58 -11.34,15.65 -4.54,6.9 -5.07,9.06 -11.44,13.45 -1.49,-0.41 -3.01,-1.13 -4.54,-2.07zm-111.33 136.51c46.37,44.04 111.79,40.33 153.54,-17.46l32.02 -45.12c-0.09,-0.13 -0.18,-0.26 -0.26,-0.39 1.62,-6.25 37.32,-50.14 42.87,-60.95 0.29,0.16 0.57,0.32 0.85,0.48 3.57,-4.87 7.28,-9.77 11.33,-14.82 10.63,-13.25 35.78,-68.16 78.09,-41.16 -2.18,-2.57 -4.63,-4.84 -7.35,-6.74 -43.71,-30.54 -69.57,26.14 -80.4,39.63 -10.81,13.47 -19.15,25.86 -29.07,39.43l-57.75 81.37c-38.93,53.88 -98.43,60.75 -143.88,25.74zm264.52 -90.86c-7.27,-7.44 -13.44,-15.99 -22.49,-22.21 7.46,7.6 13.6,16.19 22.49,22.21zm-42.01 65.62c13.23,11.85 28.22,23.16 39.17,27.93 27.15,11.85 58.26,9.41 84.94,-4.24 6.16,-3.15 12.36,-9.32 17.52,-13.49 81.33,-65.8 48.65,-186.7 -15.07,-236.28 57.15,53.7 82.53,165.62 5.42,228 -5.16,4.18 -11.36,10.34 -17.52,13.49 -26.68,13.65 -57.79,16.09 -84.94,4.24 -8.35,-3.64 -19.04,-11.08 -29.52,-19.66z"/>
  </g>
 </g>
</svg>
